<svg width="252" height="41" viewBox="0 0 252 41" fill="none" xmlns="http://www.w3.org/2000/svg">
<rect width="252" height="41" rx="15" fill="#D9D9D9"/>
<path d="M16.7727 17.2727C16.7045 16.697 16.428 16.25 15.9432 15.9318C15.4583 15.6136 14.8636 15.4545 14.1591 15.4545C13.6439 15.4545 13.1932 15.5379 12.8068 15.7045C12.4242 15.8712 12.125 16.1004 11.9091 16.392C11.697 16.6837 11.5909 17.0152 11.5909 17.3864C11.5909 17.697 11.6648 17.964 11.8125 18.1875C11.964 18.4072 12.1572 18.5909 12.392 18.7386C12.6269 18.8826 12.8731 19.0019 13.1307 19.0966C13.3883 19.1875 13.625 19.2614 13.8409 19.3182L15.0227 19.6364C15.3258 19.7159 15.6629 19.8258 16.0341 19.9659C16.4091 20.1061 16.767 20.2973 17.108 20.5398C17.4527 20.7784 17.7367 21.0852 17.9602 21.4602C18.1837 21.8352 18.2955 22.2955 18.2955 22.8409C18.2955 23.4697 18.1307 24.0379 17.8011 24.5455C17.4754 25.053 16.9981 25.4564 16.3693 25.7557C15.7443 26.0549 14.9848 26.2045 14.0909 26.2045C13.2576 26.2045 12.536 26.0701 11.9261 25.8011C11.3201 25.5322 10.8428 25.1572 10.4943 24.6761C10.1496 24.1951 9.95455 23.6364 9.90909 23H11.3636C11.4015 23.4394 11.5492 23.803 11.8068 24.0909C12.0682 24.375 12.3977 24.5871 12.7955 24.7273C13.197 24.8636 13.6288 24.9318 14.0909 24.9318C14.6288 24.9318 15.1117 24.8447 15.5398 24.6705C15.9678 24.4924 16.3068 24.2462 16.5568 23.9318C16.8068 23.6136 16.9318 23.2424 16.9318 22.8182C16.9318 22.4318 16.8239 22.1174 16.608 21.875C16.392 21.6326 16.108 21.4356 15.7557 21.2841C15.4034 21.1326 15.0227 21 14.6136 20.8864L13.1818 20.4773C12.2727 20.2159 11.553 19.8428 11.0227 19.358C10.4924 18.8731 10.2273 18.2386 10.2273 17.4545C10.2273 16.803 10.4034 16.2348 10.7557 15.75C11.1117 15.2614 11.589 14.8826 12.1875 14.6136C12.7898 14.3409 13.4621 14.2045 14.2045 14.2045C14.9545 14.2045 15.6212 14.339 16.2045 14.608C16.7879 14.8731 17.25 15.2367 17.5909 15.6989C17.9356 16.161 18.1174 16.6856 18.1364 17.2727H16.7727ZM24.0895 26.1818C23.2486 26.1818 22.5232 25.9962 21.9134 25.625C21.3073 25.25 20.8395 24.7273 20.5099 24.0568C20.1842 23.3826 20.0213 22.5985 20.0213 21.7045C20.0213 20.8106 20.1842 20.0227 20.5099 19.3409C20.8395 18.6553 21.2978 18.1212 21.8849 17.7386C22.4759 17.3523 23.1652 17.1591 23.9531 17.1591C24.4077 17.1591 24.8565 17.2348 25.2997 17.3864C25.7429 17.5379 26.1463 17.7841 26.5099 18.125C26.8736 18.4621 27.1634 18.9091 27.3793 19.4659C27.5952 20.0227 27.7031 20.7083 27.7031 21.5227V22.0909H20.9759V20.9318H26.3395C26.3395 20.4394 26.241 20 26.044 19.6136C25.8509 19.2273 25.5743 18.9223 25.2145 18.6989C24.8584 18.4754 24.438 18.3636 23.9531 18.3636C23.419 18.3636 22.9569 18.4962 22.5668 18.7614C22.1804 19.0227 21.883 19.3636 21.6747 19.7841C21.4664 20.2045 21.3622 20.6553 21.3622 21.1364V21.9091C21.3622 22.5682 21.4759 23.1269 21.7031 23.5852C21.9342 24.0398 22.2543 24.3864 22.6634 24.625C23.0724 24.8598 23.5478 24.9773 24.0895 24.9773C24.4418 24.9773 24.7599 24.928 25.044 24.8295C25.3319 24.7273 25.58 24.5758 25.7884 24.375C25.9967 24.1705 26.1577 23.9167 26.2713 23.6136L27.5668 23.9773C27.4304 24.4167 27.2012 24.803 26.8793 25.1364C26.5573 25.4659 26.1596 25.7235 25.6861 25.9091C25.2126 26.0909 24.6804 26.1818 24.0895 26.1818ZM32.3111 26.2045C31.758 26.2045 31.2562 26.1004 30.8054 25.892C30.3546 25.6799 29.9967 25.375 29.7315 24.9773C29.4664 24.5758 29.3338 24.0909 29.3338 23.5227C29.3338 23.0227 29.4323 22.6174 29.6293 22.3068C29.8262 21.9924 30.0895 21.7462 30.419 21.5682C30.7486 21.3902 31.1122 21.2576 31.5099 21.1705C31.9115 21.0795 32.3149 21.0076 32.7202 20.9545C33.2505 20.8864 33.6804 20.8352 34.0099 20.8011C34.3433 20.7633 34.5857 20.7008 34.7372 20.6136C34.8925 20.5265 34.9702 20.375 34.9702 20.1591V20.1136C34.9702 19.553 34.8168 19.1174 34.5099 18.8068C34.2069 18.4962 33.7467 18.3409 33.1293 18.3409C32.4891 18.3409 31.9872 18.4811 31.6236 18.7614C31.2599 19.0417 31.0043 19.3409 30.8565 19.6591L29.5838 19.2045C29.8111 18.6742 30.1141 18.2614 30.4929 17.9659C30.8755 17.6667 31.2921 17.4583 31.7429 17.3409C32.1974 17.2197 32.6444 17.1591 33.0838 17.1591C33.3641 17.1591 33.6861 17.1932 34.0497 17.2614C34.4171 17.3258 34.7713 17.4602 35.1122 17.6648C35.4569 17.8693 35.7429 18.178 35.9702 18.5909C36.1974 19.0038 36.3111 19.5568 36.3111 20.25V26H34.9702V24.8182H34.902C34.8111 25.0076 34.6596 25.2102 34.4474 25.4261C34.2353 25.642 33.9531 25.8258 33.6009 25.9773C33.2486 26.1288 32.8187 26.2045 32.3111 26.2045ZM32.5156 25C33.0459 25 33.4929 24.8958 33.8565 24.6875C34.224 24.4792 34.5005 24.2102 34.6861 23.8807C34.8755 23.5511 34.9702 23.2045 34.9702 22.8409V21.6136C34.9134 21.6818 34.7884 21.7443 34.5952 21.8011C34.4058 21.8542 34.1861 21.9015 33.9361 21.9432C33.6899 21.9811 33.4493 22.0152 33.2145 22.0455C32.9834 22.072 32.7959 22.0947 32.652 22.1136C32.3035 22.1591 31.9777 22.233 31.6747 22.3352C31.3755 22.4337 31.133 22.5833 30.9474 22.7841C30.7656 22.9811 30.6747 23.25 30.6747 23.5909C30.6747 24.0568 30.8471 24.4091 31.1918 24.6477C31.5402 24.8826 31.9815 25 32.5156 25ZM38.7585 26V17.2727H40.054V18.5909H40.1449C40.304 18.1591 40.5919 17.8087 41.0085 17.5398C41.4252 17.2708 41.8949 17.1364 42.4176 17.1364C42.5161 17.1364 42.6392 17.1383 42.7869 17.142C42.9347 17.1458 43.0464 17.1515 43.1222 17.1591V18.5227C43.0767 18.5114 42.9725 18.4943 42.8097 18.4716C42.6506 18.4451 42.482 18.4318 42.304 18.4318C41.8797 18.4318 41.5009 18.5208 41.1676 18.6989C40.8381 18.8731 40.5767 19.1155 40.3835 19.4261C40.1941 19.733 40.0994 20.0833 40.0994 20.4773V26H38.7585ZM47.9915 26.1818C47.1733 26.1818 46.4688 25.9886 45.8778 25.6023C45.2869 25.2159 44.8324 24.6837 44.5142 24.0057C44.196 23.3277 44.0369 22.553 44.0369 21.6818C44.0369 20.7955 44.1998 20.0133 44.5256 19.3352C44.8551 18.6534 45.3134 18.1212 45.9006 17.7386C46.4915 17.3523 47.1809 17.1591 47.9688 17.1591C48.5824 17.1591 49.1354 17.2727 49.6278 17.5C50.1203 17.7273 50.5237 18.0455 50.8381 18.4545C51.1525 18.8636 51.3475 19.3409 51.4233 19.8864H50.0824C49.9801 19.4886 49.7528 19.1364 49.4006 18.8295C49.0521 18.5189 48.5824 18.3636 47.9915 18.3636C47.4688 18.3636 47.0104 18.5 46.6165 18.7727C46.2263 19.0417 45.9214 19.4223 45.7017 19.9148C45.4858 20.4034 45.3778 20.9773 45.3778 21.6364C45.3778 22.3106 45.4839 22.8977 45.696 23.3977C45.9119 23.8977 46.215 24.286 46.6051 24.5625C46.9991 24.839 47.4612 24.9773 47.9915 24.9773C48.34 24.9773 48.6562 24.9167 48.9403 24.7955C49.2244 24.6742 49.465 24.5 49.6619 24.2727C49.8589 24.0455 49.9991 23.7727 50.0824 23.4545H51.4233C51.3475 23.9697 51.16 24.4337 50.8608 24.8466C50.5653 25.2557 50.1733 25.5814 49.6847 25.8239C49.1998 26.0625 48.6354 26.1818 47.9915 26.1818ZM54.7244 20.75V26H53.3835V14.3636H54.7244V18.6364H54.8381C55.0426 18.1856 55.3494 17.8277 55.7585 17.5625C56.1714 17.2936 56.7206 17.1591 57.4062 17.1591C58.0009 17.1591 58.5218 17.2784 58.9688 17.517C59.4157 17.7519 59.7623 18.1136 60.0085 18.6023C60.2585 19.0871 60.3835 19.7045 60.3835 20.4545V26H59.0426V20.5455C59.0426 19.8523 58.8627 19.3163 58.5028 18.9375C58.1468 18.5549 57.6525 18.3636 57.0199 18.3636C56.5805 18.3636 56.1866 18.4564 55.8381 18.642C55.4934 18.8277 55.2206 19.0985 55.0199 19.4545C54.8229 19.8106 54.7244 20.2424 54.7244 20.75ZM67.5185 26V14.3636H71.4503C72.3632 14.3636 73.1094 14.5284 73.6889 14.858C74.2723 15.1837 74.7041 15.625 74.9844 16.1818C75.2647 16.7386 75.4048 17.3598 75.4048 18.0455C75.4048 18.7311 75.2647 19.3542 74.9844 19.9148C74.7079 20.4754 74.2798 20.9223 73.7003 21.2557C73.1207 21.5852 72.3783 21.75 71.473 21.75H68.6548V20.5H71.4276C72.0526 20.5 72.5545 20.392 72.9332 20.1761C73.312 19.9602 73.5866 19.6686 73.7571 19.3011C73.9313 18.9299 74.0185 18.5114 74.0185 18.0455C74.0185 17.5795 73.9313 17.1629 73.7571 16.7955C73.5866 16.428 73.3101 16.1402 72.9276 15.9318C72.545 15.7197 72.0374 15.6136 71.4048 15.6136H68.9276V26H67.5185ZM77.4929 26V17.2727H78.7884V18.5909H78.8793C79.0384 18.1591 79.3262 17.8087 79.7429 17.5398C80.1596 17.2708 80.6293 17.1364 81.152 17.1364C81.2505 17.1364 81.3736 17.1383 81.5213 17.142C81.669 17.1458 81.7808 17.1515 81.8565 17.1591V18.5227C81.8111 18.5114 81.7069 18.4943 81.544 18.4716C81.3849 18.4451 81.2164 18.4318 81.0384 18.4318C80.6141 18.4318 80.2353 18.5208 79.902 18.6989C79.5724 18.8731 79.3111 19.1155 79.1179 19.4261C78.9285 19.733 78.8338 20.0833 78.8338 20.4773V26H77.4929ZM86.7259 26.1818C85.938 26.1818 85.2467 25.9943 84.652 25.6193C84.0611 25.2443 83.599 24.7197 83.2656 24.0455C82.9361 23.3712 82.7713 22.5833 82.7713 21.6818C82.7713 20.7727 82.9361 19.9792 83.2656 19.3011C83.599 18.6231 84.0611 18.0966 84.652 17.7216C85.2467 17.3466 85.938 17.1591 86.7259 17.1591C87.5137 17.1591 88.2031 17.3466 88.794 17.7216C89.3887 18.0966 89.8509 18.6231 90.1804 19.3011C90.5137 19.9792 90.6804 20.7727 90.6804 21.6818C90.6804 22.5833 90.5137 23.3712 90.1804 24.0455C89.8509 24.7197 89.3887 25.2443 88.794 25.6193C88.2031 25.9943 87.5137 26.1818 86.7259 26.1818ZM86.7259 24.9773C87.3243 24.9773 87.8168 24.8239 88.2031 24.517C88.5895 24.2102 88.8755 23.8068 89.0611 23.3068C89.2467 22.8068 89.3395 22.2652 89.3395 21.6818C89.3395 21.0985 89.2467 20.5549 89.0611 20.0511C88.8755 19.5473 88.5895 19.1402 88.2031 18.8295C87.8168 18.5189 87.3243 18.3636 86.7259 18.3636C86.1274 18.3636 85.6349 18.5189 85.2486 18.8295C84.8622 19.1402 84.5762 19.5473 84.3906 20.0511C84.205 20.5549 84.1122 21.0985 84.1122 21.6818C84.1122 22.2652 84.205 22.8068 84.3906 23.3068C84.5762 23.8068 84.8622 24.2102 85.2486 24.517C85.6349 24.8239 86.1274 24.9773 86.7259 24.9773ZM96.0227 26.1818C95.2955 26.1818 94.6534 25.9981 94.0966 25.6307C93.5398 25.2595 93.1042 24.7367 92.7898 24.0625C92.4754 23.3845 92.3182 22.5833 92.3182 21.6591C92.3182 20.7424 92.4754 19.947 92.7898 19.2727C93.1042 18.5985 93.5417 18.0777 94.1023 17.7102C94.6629 17.3428 95.3106 17.1591 96.0455 17.1591C96.6136 17.1591 97.0625 17.2538 97.392 17.4432C97.7254 17.6288 97.9792 17.8409 98.1534 18.0795C98.3314 18.3144 98.4697 18.5076 98.5682 18.6591H98.6818V14.3636H100.023V26H98.7273V24.6591H98.5682C98.4697 24.8182 98.3295 25.0189 98.1477 25.2614C97.9659 25.5 97.7064 25.714 97.3693 25.9034C97.0322 26.089 96.5833 26.1818 96.0227 26.1818ZM96.2045 24.9773C96.7424 24.9773 97.197 24.8371 97.5682 24.5568C97.9394 24.2727 98.2216 23.8807 98.4148 23.3807C98.608 22.8769 98.7045 22.2955 98.7045 21.6364C98.7045 20.9848 98.6098 20.4148 98.4205 19.9261C98.2311 19.4337 97.9508 19.0511 97.5795 18.7784C97.2083 18.5019 96.75 18.3636 96.2045 18.3636C95.6364 18.3636 95.1629 18.5095 94.7841 18.8011C94.4091 19.089 94.1269 19.4811 93.9375 19.9773C93.7519 20.4697 93.6591 21.0227 93.6591 21.6364C93.6591 22.2576 93.7538 22.822 93.9432 23.3295C94.1364 23.8333 94.4205 24.2348 94.7955 24.5341C95.1742 24.8295 95.6439 24.9773 96.2045 24.9773ZM108.165 22.4318V17.2727H109.506V26H108.165V24.5227H108.074C107.869 24.9659 107.551 25.3428 107.119 25.6534C106.688 25.9602 106.142 26.1136 105.483 26.1136C104.938 26.1136 104.453 25.9943 104.028 25.7557C103.604 25.5133 103.271 25.1496 103.028 24.6648C102.786 24.1761 102.665 23.5606 102.665 22.8182V17.2727H104.006V22.7273C104.006 23.3636 104.184 23.8712 104.54 24.25C104.9 24.6288 105.358 24.8182 105.915 24.8182C106.248 24.8182 106.587 24.733 106.932 24.5625C107.28 24.392 107.572 24.1307 107.807 23.7784C108.045 23.4261 108.165 22.9773 108.165 22.4318ZM115.507 26.1818C114.689 26.1818 113.984 25.9886 113.393 25.6023C112.803 25.2159 112.348 24.6837 112.03 24.0057C111.712 23.3277 111.553 22.553 111.553 21.6818C111.553 20.7955 111.715 20.0133 112.041 19.3352C112.371 18.6534 112.829 18.1212 113.416 17.7386C114.007 17.3523 114.696 17.1591 115.484 17.1591C116.098 17.1591 116.651 17.2727 117.143 17.5C117.636 17.7273 118.039 18.0455 118.354 18.4545C118.668 18.8636 118.863 19.3409 118.939 19.8864H117.598C117.496 19.4886 117.268 19.1364 116.916 18.8295C116.568 18.5189 116.098 18.3636 115.507 18.3636C114.984 18.3636 114.526 18.5 114.132 18.7727C113.742 19.0417 113.437 19.4223 113.217 19.9148C113.001 20.4034 112.893 20.9773 112.893 21.6364C112.893 22.3106 113 22.8977 113.212 23.3977C113.428 23.8977 113.731 24.286 114.121 24.5625C114.515 24.839 114.977 24.9773 115.507 24.9773C115.856 24.9773 116.172 24.9167 116.456 24.7955C116.74 24.6742 116.981 24.5 117.178 24.2727C117.375 24.0455 117.515 23.7727 117.598 23.4545H118.939C118.863 23.9697 118.676 24.4337 118.376 24.8466C118.081 25.2557 117.689 25.5814 117.2 25.8239C116.715 26.0625 116.151 26.1818 115.507 26.1818ZM124.695 17.2727V18.4091H120.172V17.2727H124.695ZM121.49 15.1818H122.831V23.5C122.831 23.8788 122.886 24.1629 122.996 24.3523C123.109 24.5379 123.253 24.6629 123.428 24.7273C123.606 24.7879 123.793 24.8182 123.99 24.8182C124.138 24.8182 124.259 24.8106 124.354 24.7955C124.448 24.7765 124.524 24.7614 124.581 24.75L124.854 25.9545C124.763 25.9886 124.636 26.0227 124.473 26.0568C124.31 26.0947 124.104 26.1136 123.854 26.1136C123.475 26.1136 123.104 26.0322 122.74 25.8693C122.38 25.7064 122.081 25.4583 121.842 25.125C121.607 24.7917 121.49 24.3712 121.49 23.8636V15.1818ZM132.737 19.2273L131.533 19.5682C131.457 19.3674 131.345 19.1723 131.197 18.983C131.054 18.7898 130.857 18.6307 130.607 18.5057C130.357 18.3807 130.036 18.3182 129.646 18.3182C129.112 18.3182 128.667 18.4413 128.311 18.6875C127.959 18.9299 127.783 19.2386 127.783 19.6136C127.783 19.947 127.904 20.2102 128.146 20.4034C128.389 20.5966 128.768 20.7576 129.283 20.8864L130.578 21.2045C131.358 21.3939 131.94 21.6837 132.322 22.0739C132.705 22.4602 132.896 22.9583 132.896 23.5682C132.896 24.0682 132.752 24.5152 132.464 24.9091C132.18 25.303 131.783 25.6136 131.271 25.8409C130.76 26.0682 130.165 26.1818 129.487 26.1818C128.597 26.1818 127.86 25.9886 127.277 25.6023C126.694 25.2159 126.324 24.6515 126.169 23.9091L127.442 23.5909C127.563 24.0606 127.792 24.4129 128.129 24.6477C128.47 24.8826 128.915 25 129.464 25C130.089 25 130.586 24.8674 130.953 24.6023C131.324 24.3333 131.51 24.0114 131.51 23.6364C131.51 23.3333 131.404 23.0795 131.192 22.875C130.98 22.6667 130.654 22.5114 130.214 22.4091L128.76 22.0682C127.961 21.8788 127.374 21.5852 126.999 21.1875C126.627 20.786 126.442 20.2841 126.442 19.6818C126.442 19.1894 126.58 18.7538 126.857 18.375C127.137 17.9962 127.518 17.6989 127.999 17.483C128.483 17.267 129.033 17.1591 129.646 17.1591C130.51 17.1591 131.188 17.3485 131.68 17.7273C132.177 18.1061 132.529 18.6061 132.737 19.2273Z" fill="black"/>
<g clip-path="url(#clip0_185_6215)">
<path d="M241.695 31.2225L235.477 25.0048C237.172 22.9325 238.005 20.2882 237.804 17.6189C237.604 14.9496 236.385 12.4595 234.4 10.6637C232.415 8.86783 229.815 7.90364 227.139 7.97055C224.463 8.03746 221.915 9.13034 220.023 11.0231C218.13 12.9159 217.037 15.4638 216.97 18.1398C216.903 20.8158 217.867 23.4152 219.663 25.4002C221.459 27.3852 223.949 28.6041 226.618 28.8046C229.288 29.0052 231.932 28.1721 234.004 26.4777L240.222 32.6954C240.418 32.8852 240.682 32.9902 240.955 32.9878C241.228 32.9854 241.489 32.8759 241.682 32.6827C241.875 32.4896 241.985 32.2283 241.987 31.9552C241.99 31.6821 241.885 31.419 241.695 31.2225ZM227.417 26.7506C225.769 26.7506 224.157 26.2619 222.787 25.3462C221.417 24.4305 220.349 23.129 219.718 21.6063C219.087 20.0836 218.922 18.4081 219.244 16.7915C219.565 15.175 220.359 13.6902 221.524 12.5247C222.69 11.3593 224.175 10.5656 225.791 10.2441C227.408 9.92254 229.083 10.0876 230.606 10.7183C232.129 11.349 233.43 12.4171 234.346 13.7875C235.261 15.158 235.75 16.7691 235.75 18.4173C235.748 20.6267 234.869 22.7448 233.307 24.3071C231.744 25.8694 229.626 26.7481 227.417 26.7506Z" fill="#454444"/>
</g>
<defs>
<clipPath id="clip0_185_6215">
<rect width="25" height="25" fill="white" transform="translate(217 8)"/>
</clipPath>
</defs>
</svg>
